<?xml version="1.0" encoding="utf-8"?>
<!-- Generator: Adobe Illustrator 19.0.0, SVG Export Plug-In . SVG Version: 6.00 Build 0)  -->
<svg version="1.1" id="Layer_1" xmlns="http://www.w3.org/2000/svg" xmlns:xlink="http://www.w3.org/1999/xlink" x="0px" y="0px"
	 viewBox="-889 891 220 220" style="enable-background:new -889 891 220 220;" xml:space="preserve">
<g>
	<g>
		<g>
			<g>
				<g>
					<g>
						<path d="M-693.6,976.3l4.5,1.5l-2.8,3.8c-0.1,0.1-0.1,0.2-0.1,0.3c0,0.1,0,0.2,0.1,0.3l1.5,1.1c0.1,0.1,0.2,0.1,0.3,0.1
							c0.1,0,0.2-0.1,0.3-0.2l2.8-3.8l2.8,3.8c0.1,0.1,0.2,0.2,0.3,0.2c0.1,0,0.2,0,0.3-0.1l1.5-1.1c0.1-0.1,0.1-0.2,0.1-0.3
							c0,0,0-0.1-0.1-0.3l-2.8-3.8l4.5-1.5c0.2-0.1,0.3-0.2,0.3-0.3c0,0,0-0.1,0-0.2l-0.5-1.9c-0.1-0.2-0.2-0.3-0.3-0.3l-0.2,0
							l-4.5,1.5v-4.7c0-0.3-0.1-0.4-0.4-0.4h-1.9c-0.2,0-0.4,0.1-0.4,0.4v4.7l-4.5-1.5c-0.1,0-0.2,0-0.2,0c-0.2,0-0.3,0.1-0.3,0.3
							l-0.5,1.9l0,0.2C-693.8,976.1-693.7,976.2-693.6,976.3z"/>
					</g>
				</g>
				<g>
					<g>
						<path d="M-702.9,954.2l4.5,1.5l-2.8,3.8c-0.1,0.1-0.1,0.2-0.1,0.3c0,0.1,0,0.2,0.1,0.3l1.5,1.1c0.1,0.1,0.2,0.1,0.3,0.1
							c0.1,0,0.2-0.1,0.3-0.2l2.8-3.8l2.8,3.8c0.1,0.1,0.2,0.2,0.3,0.2c0.1,0,0.2,0,0.3-0.1l1.5-1.1c0.1-0.1,0.1-0.2,0.1-0.3
							c0,0,0-0.1-0.1-0.3l-2.8-3.8l4.5-1.5c0.2-0.1,0.3-0.2,0.3-0.3c0,0,0-0.1,0-0.2l-0.5-1.9c-0.1-0.2-0.2-0.3-0.3-0.3l-0.2,0
							l-4.5,1.5v-4.7c0-0.2-0.1-0.4-0.4-0.4h-1.9c-0.2,0-0.4,0.1-0.4,0.4v4.7l-4.5-1.5c-0.1,0-0.2,0-0.2,0c-0.2,0-0.3,0.1-0.3,0.3
							l-0.5,1.9l0,0.2C-703.1,954-703.1,954.1-702.9,954.2z"/>
					</g>
				</g>
				<g>
					<g>
						<path d="M-717.1,934.9l4.5,1.5l-2.8,3.8c-0.1,0.1-0.1,0.2-0.1,0.3c0,0.1,0,0.2,0.1,0.3l1.5,1.1c0.1,0.1,0.2,0.1,0.3,0.1
							c0.1,0,0.2-0.1,0.3-0.2l2.8-3.8l2.8,3.8c0.1,0.1,0.2,0.2,0.3,0.2c0.1,0,0.2,0,0.3-0.1l1.5-1.1c0.1-0.1,0.1-0.2,0.1-0.3
							c0,0,0-0.1-0.1-0.3l-2.8-3.8l4.5-1.5c0.2-0.1,0.3-0.2,0.3-0.3c0,0,0-0.1,0-0.2l-0.5-1.9c-0.1-0.2-0.2-0.3-0.3-0.3l-0.2,0
							l-4.5,1.5v-4.7c0-0.2-0.1-0.4-0.4-0.4h-1.9c-0.2,0-0.4,0.1-0.4,0.4v4.7l-4.5-1.5c-0.1,0-0.2,0-0.2,0c-0.2,0-0.3,0.1-0.3,0.3
							l-0.5,1.9l0,0.2C-717.4,934.7-717.3,934.8-717.1,934.9z"/>
					</g>
				</g>
				<g>
					<g>
						<path d="M-735.6,919.5l4.5,1.5l-2.8,3.8c-0.1,0.1-0.1,0.2-0.1,0.3c0,0.1,0,0.2,0.1,0.3l1.5,1.1c0.1,0.1,0.2,0.1,0.3,0.1
							c0.1,0,0.2-0.1,0.3-0.2l2.8-3.8l2.8,3.8c0.1,0.1,0.2,0.2,0.3,0.2c0.1,0,0.2,0,0.3-0.1l1.5-1.1c0.1-0.1,0.1-0.2,0.1-0.3
							c0,0,0-0.1-0.1-0.3l-2.8-3.8l4.5-1.5c0.2-0.1,0.3-0.2,0.3-0.3c0,0,0-0.1,0-0.2l-0.5-1.9c-0.1-0.2-0.2-0.3-0.3-0.3l-0.2,0
							l-4.5,1.5v-4.7c0-0.3-0.1-0.4-0.4-0.4h-1.9c-0.2,0-0.4,0.1-0.4,0.4v4.7l-4.5-1.5c-0.1,0-0.2,0-0.2,0c-0.2,0-0.3,0.1-0.3,0.3
							l-0.5,1.9l0,0.2C-735.8,919.3-735.7,919.4-735.6,919.5z"/>
					</g>
				</g>
				<g>
					<g>
						<path d="M-757.3,908.7l4.5,1.5l-2.8,3.8c-0.1,0.1-0.1,0.2-0.1,0.3c0,0.1,0,0.2,0.1,0.3l1.5,1.1c0.1,0.1,0.2,0.1,0.3,0.1
							c0.1,0,0.2-0.1,0.3-0.2l2.8-3.8l2.8,3.8c0.1,0.1,0.2,0.2,0.3,0.2c0.1,0,0.2,0,0.3-0.1l1.5-1.1c0.1-0.1,0.1-0.2,0.1-0.3
							c0,0,0-0.1-0.1-0.3l-2.8-3.8l4.5-1.5c0.2-0.1,0.3-0.2,0.3-0.3c0,0,0-0.1,0-0.2l-0.5-1.9c-0.1-0.2-0.2-0.3-0.3-0.3l-0.2,0
							l-4.5,1.5V903c0-0.3-0.1-0.4-0.4-0.4h-1.9c-0.2,0-0.4,0.1-0.4,0.4v4.7l-4.5-1.5c-0.1,0-0.2,0-0.2,0c-0.2,0-0.3,0.1-0.3,0.3
							l-0.5,1.9l0,0.2C-757.5,908.5-757.4,908.7-757.3,908.7z"/>
					</g>
				</g>
				<g>
					<g>
						<path d="M-781.2,904.9l4.5,1.5l-2.8,3.8c-0.1,0.1-0.1,0.2-0.1,0.3c0,0.1,0,0.2,0.1,0.3l1.5,1.1c0.1,0.1,0.2,0.1,0.3,0.1
							c0.1,0,0.2-0.1,0.3-0.2l2.8-3.8l2.8,3.8c0.1,0.1,0.2,0.2,0.3,0.2c0.1,0,0.2,0,0.3-0.1l1.5-1.1c0.1-0.1,0.1-0.2,0.1-0.3
							c0,0,0-0.1-0.1-0.3l-2.8-3.8l4.5-1.5c0.2-0.1,0.3-0.2,0.3-0.3c0,0,0-0.1,0-0.2l-0.5-1.9c-0.1-0.2-0.2-0.3-0.3-0.3l-0.2,0
							l-4.5,1.5v-4.7c0-0.2-0.1-0.4-0.4-0.4h-1.9c-0.2,0-0.4,0.1-0.4,0.4v4.7l-4.5-1.5c-0.1,0-0.2,0-0.2,0c-0.2,0-0.3,0.1-0.3,0.3
							l-0.5,1.9l0,0.2C-781.5,904.7-781.4,904.8-781.2,904.9z"/>
					</g>
				</g>
				<g>
					<g>
						<path d="M-805.2,907l4.5,1.5l-2.8,3.8c-0.1,0.1-0.1,0.2-0.1,0.3c0,0.1,0,0.2,0.1,0.3l1.5,1.1c0.1,0.1,0.2,0.1,0.3,0.1
							c0.1,0,0.2-0.1,0.3-0.2l2.8-3.8l2.8,3.8c0.1,0.1,0.2,0.2,0.3,0.2c0.1,0,0.2,0,0.3-0.1l1.5-1.1c0.1-0.1,0.1-0.2,0.1-0.3
							c0,0,0-0.1-0.1-0.3l-2.8-3.8l4.5-1.5c0.2-0.1,0.3-0.2,0.3-0.3c0,0,0-0.1,0-0.2l-0.5-1.9c-0.1-0.2-0.2-0.3-0.3-0.3l-0.2,0
							l-4.5,1.5v-4.7c0-0.3-0.1-0.4-0.4-0.4h-1.9c-0.2,0-0.4,0.1-0.4,0.4v4.7l-4.5-1.5c-0.1,0-0.2,0-0.2,0c-0.2,0-0.3,0.1-0.3,0.3
							l-0.5,1.9l0,0.2C-805.4,906.8-805.3,906.9-805.2,907z"/>
					</g>
				</g>
				<g>
					<g>
						<path d="M-827.9,914.4l4.5,1.5l-2.8,3.8c-0.1,0.1-0.1,0.2-0.1,0.3c0,0.1,0,0.2,0.1,0.3l1.5,1.1c0.1,0.1,0.2,0.1,0.3,0.1
							c0.1,0,0.2-0.1,0.3-0.2l2.8-3.8l2.8,3.8c0.1,0.1,0.2,0.2,0.3,0.2c0.1,0,0.2,0,0.3-0.1l1.5-1.1c0.1-0.1,0.1-0.2,0.1-0.3
							c0,0,0-0.1-0.1-0.3l-2.8-3.8l4.5-1.5c0.2-0.1,0.3-0.2,0.3-0.3c0,0,0-0.1,0-0.2l-0.5-1.9c-0.1-0.2-0.2-0.3-0.3-0.3l-0.2,0
							l-4.5,1.5v-4.7c0-0.2-0.1-0.4-0.4-0.4h-1.9c-0.2,0-0.4,0.1-0.4,0.4v4.7l-4.5-1.5c-0.1,0-0.2,0-0.2,0c-0.2,0-0.3,0.1-0.3,0.3
							l-0.5,1.9l0,0.2C-828.2,914.3-828.1,914.4-827.9,914.4z"/>
					</g>
				</g>
				<g>
					<g>
						<path d="M-848.3,927.1l4.5,1.5l-2.8,3.8c-0.1,0.1-0.1,0.2-0.1,0.3c0,0.1,0,0.2,0.1,0.3l1.5,1.1c0.1,0.1,0.2,0.1,0.3,0.1
							c0.1,0,0.2-0.1,0.3-0.2l2.8-3.8l2.8,3.8c0.1,0.1,0.2,0.2,0.3,0.2c0.1,0,0.2,0,0.3-0.1l1.5-1.1c0.1-0.1,0.1-0.2,0.1-0.3
							c0,0,0-0.1-0.1-0.3l-2.8-3.8l4.5-1.5c0.2-0.1,0.3-0.2,0.3-0.3c0,0,0-0.1,0-0.2l-0.5-1.9c-0.1-0.2-0.2-0.3-0.3-0.3l-0.2,0
							l-4.5,1.5v-4.7c0-0.2-0.1-0.4-0.4-0.4h-1.9c-0.2,0-0.4,0.1-0.4,0.4v4.7l-4.5-1.5c-0.1,0-0.2,0-0.2,0c-0.2,0-0.3,0.1-0.3,0.3
							l-0.5,1.9l0,0.2C-848.6,926.9-848.5,927.1-848.3,927.1z"/>
					</g>
				</g>
				<g>
					<g>
						<path d="M-865.3,944.4l4.5,1.5l-2.8,3.8c-0.1,0.1-0.1,0.2-0.1,0.3c0,0.1,0,0.2,0.1,0.3l1.5,1.1c0.1,0.1,0.2,0.1,0.3,0.1
							c0.1,0,0.2-0.1,0.3-0.2l2.8-3.8l2.8,3.8c0.1,0.1,0.2,0.2,0.3,0.2c0.1,0,0.2,0,0.3-0.1l1.5-1.1c0.1-0.1,0.1-0.2,0.1-0.3
							c0,0,0-0.1-0.1-0.3l-2.8-3.8l4.5-1.5c0.2-0.1,0.3-0.2,0.3-0.3c0,0,0-0.1,0-0.2l-0.5-1.9c-0.1-0.2-0.2-0.3-0.3-0.3l-0.2,0
							l-4.5,1.5v-4.7c0-0.2-0.1-0.4-0.4-0.4h-1.9c-0.2,0-0.4,0.1-0.4,0.4v4.7l-4.5-1.5c-0.1,0-0.2,0-0.2,0c-0.2,0-0.3,0.1-0.3,0.3
							l-0.5,1.9l0,0.2C-865.6,944.3-865.5,944.4-865.3,944.4z"/>
					</g>
				</g>
				<g>
					<g>
						<path d="M-876.4,966l4.5,1.5l-2.8,3.8c-0.1,0.1-0.1,0.2-0.1,0.3c0,0.1,0,0.2,0.1,0.3l1.5,1.1c0.1,0.1,0.2,0.1,0.3,0.1
							c0.1,0,0.2-0.1,0.3-0.2l2.8-3.8l2.8,3.8c0.1,0.1,0.2,0.2,0.3,0.2c0.1,0,0.2,0,0.3-0.1l1.5-1.1c0.1-0.1,0.1-0.2,0.1-0.3
							c0,0,0-0.1-0.1-0.3l-2.8-3.8l4.5-1.5c0.2-0.1,0.3-0.2,0.3-0.3c0,0,0-0.1,0-0.2l-0.5-1.9c-0.1-0.2-0.2-0.3-0.3-0.3l-0.2,0
							l-4.5,1.5v-4.7c0-0.3-0.1-0.4-0.4-0.4h-1.9c-0.2,0-0.4,0.1-0.4,0.4v4.7l-4.5-1.5c-0.1,0-0.2,0-0.2,0c-0.2,0-0.3,0.1-0.3,0.3
							l-0.5,1.9l0,0.2C-876.7,965.8-876.6,965.9-876.4,966z"/>
					</g>
				</g>
				<g>
					<g>
						<path d="M-881.8,989.5l4.5,1.5l-2.8,3.8c-0.1,0.1-0.1,0.2-0.1,0.3c0,0.1,0,0.2,0.1,0.3l1.5,1.1c0.1,0.1,0.2,0.1,0.3,0.1
							c0.1,0,0.2-0.1,0.3-0.2l2.8-3.8l2.8,3.8c0.1,0.1,0.2,0.2,0.3,0.2c0.1,0,0.2,0,0.3-0.1l1.5-1.1c0.1-0.1,0.1-0.2,0.1-0.3
							c0,0,0-0.1-0.1-0.3l-2.8-3.8l4.5-1.5c0.2-0.1,0.3-0.2,0.3-0.3c0,0,0-0.1,0-0.2l-0.5-1.9c-0.1-0.2-0.2-0.3-0.3-0.3l-0.2,0
							l-4.5,1.5v-4.7c0-0.3-0.1-0.4-0.4-0.4h-1.9c-0.2,0-0.4,0.1-0.4,0.4v4.7l-4.5-1.5c-0.1,0-0.2,0-0.2,0c-0.2,0-0.3,0.1-0.3,0.3
							l-0.5,1.9l0,0.2C-882,989.3-882,989.4-881.8,989.5z"/>
					</g>
				</g>
				<g>
					<g>
						<path d="M-881.7,1013.4l4.5,1.5l-2.8,3.8c-0.1,0.1-0.1,0.2-0.1,0.3c0,0.1,0,0.2,0.1,0.3l1.5,1.1c0.1,0.1,0.2,0.1,0.3,0.1
							c0.1,0,0.2-0.1,0.3-0.2l2.8-3.8l2.8,3.8c0.1,0.1,0.2,0.2,0.3,0.2c0.1,0,0.2,0,0.3-0.1l1.5-1.1c0.1-0.1,0.1-0.2,0.1-0.3
							c0,0,0-0.1-0.1-0.3l-2.8-3.8l4.5-1.5c0.2-0.1,0.3-0.2,0.3-0.3c0,0,0-0.1,0-0.2l-0.5-1.9c-0.1-0.2-0.2-0.3-0.3-0.3l-0.2,0
							l-4.5,1.5v-4.7c0-0.3-0.1-0.4-0.4-0.4h-1.9c-0.2,0-0.4,0.1-0.4,0.4v4.7l-4.5-1.5c-0.1,0-0.2,0-0.2,0c-0.2,0-0.3,0.1-0.3,0.3
							l-0.5,1.9l0,0.2C-881.9,1013.2-881.8,1013.3-881.7,1013.4z"/>
					</g>
				</g>
				<g>
					<g>
						<path d="M-876.1,1036.8l4.5,1.5l-2.8,3.8c-0.1,0.1-0.1,0.2-0.1,0.3c0,0.1,0,0.2,0.1,0.3l1.5,1.1c0.1,0.1,0.2,0.1,0.3,0.1
							c0.1,0,0.2-0.1,0.3-0.2l2.8-3.8l2.8,3.8c0.1,0.1,0.2,0.2,0.3,0.2c0.1,0,0.2,0,0.3-0.1l1.5-1.1c0.1-0.1,0.1-0.2,0.1-0.3
							c0,0,0-0.1-0.1-0.3l-2.8-3.8l4.5-1.5c0.2-0.1,0.3-0.2,0.3-0.3c0,0,0-0.1,0-0.2l-0.5-1.9c-0.1-0.2-0.2-0.3-0.3-0.3l-0.2,0
							l-4.5,1.5v-4.7c0-0.3-0.1-0.4-0.4-0.4h-1.9c-0.2,0-0.4,0.1-0.4,0.4v4.7l-4.5-1.5c-0.1,0-0.2,0-0.2,0c-0.2,0-0.3,0.1-0.3,0.3
							l-0.5,1.9l0,0.2C-876.3,1036.6-876.3,1036.7-876.1,1036.8z"/>
					</g>
				</g>
				<g>
					<g>
						<path d="M-864.9,1058.3l4.5,1.5l-2.8,3.8c-0.1,0.1-0.1,0.2-0.1,0.3c0,0.1,0,0.2,0.1,0.3l1.5,1.1c0.1,0.1,0.2,0.1,0.3,0.1
							c0.1,0,0.2-0.1,0.3-0.2l2.8-3.8l2.8,3.8c0.1,0.1,0.2,0.2,0.3,0.2c0.1,0,0.2,0,0.3-0.1l1.5-1.1c0.1-0.1,0.1-0.2,0.1-0.3
							c0,0,0-0.1-0.1-0.3l-2.8-3.8l4.5-1.5c0.2-0.1,0.3-0.2,0.3-0.3c0,0,0-0.1,0-0.2l-0.5-1.9c-0.1-0.2-0.2-0.3-0.3-0.3l-0.2,0
							l-4.5,1.5v-4.7c0-0.3-0.1-0.4-0.4-0.4h-1.9c-0.2,0-0.4,0.1-0.4,0.4v4.7l-4.5-1.5c-0.1,0-0.2,0-0.2,0c-0.2,0-0.3,0.1-0.3,0.3
							l-0.5,1.9l0,0.2C-865.2,1058.2-865.1,1058.3-864.9,1058.3z"/>
					</g>
				</g>
				<g>
					<g>
						<path d="M-847.8,1075.5l4.5,1.5l-2.8,3.8c-0.1,0.1-0.1,0.2-0.1,0.3c0,0.1,0,0.2,0.1,0.3l1.5,1.1c0.1,0.1,0.2,0.1,0.3,0.1
							c0.1,0,0.2-0.1,0.3-0.2l2.8-3.8l2.8,3.8c0.1,0.1,0.2,0.2,0.3,0.2c0.1,0,0.2,0,0.3-0.1l1.5-1.1c0.1-0.1,0.1-0.2,0.1-0.3
							c0,0,0-0.1-0.1-0.3l-2.8-3.8l4.5-1.5c0.2-0.1,0.3-0.2,0.3-0.3c0,0,0-0.1,0-0.2l-0.5-1.9c-0.1-0.2-0.2-0.3-0.3-0.3l-0.2,0
							l-4.5,1.5v-4.7c0-0.3-0.1-0.4-0.4-0.4h-1.9c-0.2,0-0.4,0.1-0.4,0.4v4.7l-4.5-1.5c-0.1,0-0.2,0-0.2,0c-0.2,0-0.3,0.1-0.3,0.3
							l-0.5,1.9l0,0.2C-848,1075.3-848,1075.4-847.8,1075.5z"/>
					</g>
				</g>
				<g>
					<g>
						<path d="M-827.2,1088l4.5,1.5l-2.8,3.8c-0.1,0.1-0.1,0.2-0.1,0.3c0,0.1,0,0.2,0.1,0.3l1.5,1.1c0.1,0.1,0.2,0.1,0.3,0.1
							c0.1,0,0.2-0.1,0.3-0.2l2.8-3.8l2.8,3.8c0.1,0.1,0.2,0.2,0.3,0.2c0.1,0,0.2,0,0.3-0.1l1.5-1.1c0.1-0.1,0.1-0.2,0.1-0.3
							c0,0,0-0.1-0.1-0.3l-2.8-3.8l4.5-1.5c0.2-0.1,0.3-0.2,0.3-0.3c0,0,0-0.1,0-0.2l-0.5-1.9c-0.1-0.2-0.2-0.3-0.3-0.3l-0.2,0
							l-4.5,1.5v-4.7c0-0.3-0.1-0.4-0.4-0.4h-1.9c-0.2,0-0.4,0.1-0.4,0.4v4.7l-4.5-1.5c-0.1,0-0.2,0-0.2,0c-0.2,0-0.3,0.1-0.3,0.3
							l-0.5,1.9l0,0.2C-827.5,1087.8-827.4,1087.9-827.2,1088z"/>
					</g>
				</g>
				<g>
					<g>
						<path d="M-804.4,1095.2l4.5,1.5l-2.8,3.8c-0.1,0.1-0.1,0.2-0.1,0.3c0,0.1,0,0.2,0.1,0.3l1.5,1.1c0.1,0.1,0.2,0.1,0.3,0.1
							c0.1,0,0.2-0.1,0.3-0.2l2.8-3.8l2.8,3.8c0.1,0.1,0.2,0.2,0.3,0.2c0.1,0,0.2,0,0.3-0.1l1.5-1.1c0.1-0.1,0.1-0.2,0.1-0.3
							c0,0,0-0.1-0.1-0.3l-2.8-3.8l4.5-1.5c0.2-0.1,0.3-0.2,0.3-0.3c0,0,0-0.1,0-0.2l-0.5-1.9c-0.1-0.2-0.2-0.3-0.3-0.3l-0.2,0
							l-4.5,1.5v-4.7c0-0.3-0.1-0.4-0.4-0.4h-1.9c-0.2,0-0.4,0.1-0.4,0.4v4.7l-4.5-1.5c-0.1,0-0.2,0-0.2,0c-0.2,0-0.3,0.1-0.3,0.3
							l-0.5,1.9l0,0.2C-804.6,1095-804.5,1095.1-804.4,1095.2z"/>
					</g>
				</g>
				<g>
					<g>
						<path d="M-780.4,1097.1l4.5,1.5l-2.8,3.8c-0.1,0.1-0.1,0.2-0.1,0.3c0,0.1,0,0.2,0.1,0.3l1.5,1.1c0.1,0.1,0.2,0.1,0.3,0.1
							c0.1,0,0.2-0.1,0.3-0.2l2.8-3.8l2.8,3.8c0.1,0.1,0.2,0.2,0.3,0.2c0.1,0,0.2,0,0.3-0.1l1.5-1.1c0.1-0.1,0.1-0.2,0.1-0.3
							c0,0,0-0.1-0.1-0.3l-2.8-3.8l4.5-1.5c0.2-0.1,0.3-0.2,0.3-0.3c0,0,0-0.1,0-0.2l-0.5-1.9c-0.1-0.2-0.2-0.3-0.3-0.3l-0.2,0
							l-4.5,1.5v-4.7c0-0.3-0.1-0.4-0.4-0.4h-1.9c-0.2,0-0.4,0.1-0.4,0.4v4.7l-4.5-1.5c-0.1,0-0.2,0-0.2,0c-0.2,0-0.3,0.1-0.3,0.3
							l-0.5,1.9l0,0.2C-780.7,1096.9-780.6,1097-780.4,1097.1z"/>
					</g>
				</g>
				<g>
					<g>
						<path d="M-756.5,1093.2l4.5,1.5l-2.8,3.8c-0.1,0.1-0.1,0.2-0.1,0.3c0,0.1,0,0.2,0.1,0.3l1.5,1.1c0.1,0.1,0.2,0.1,0.3,0.1
							c0.1,0,0.2-0.1,0.3-0.2l2.8-3.8l2.8,3.8c0.1,0.1,0.2,0.2,0.3,0.2c0.1,0,0.2,0,0.3-0.1l1.5-1.1c0.1-0.1,0.1-0.2,0.1-0.3
							c0,0,0-0.1-0.1-0.3l-2.8-3.8l4.5-1.5c0.2-0.1,0.3-0.2,0.3-0.3c0,0,0-0.1,0-0.2l-0.5-1.9c-0.1-0.2-0.2-0.3-0.3-0.3l-0.2,0
							l-4.5,1.5v-4.7c0-0.3-0.1-0.4-0.4-0.4h-1.9c-0.2,0-0.4,0.1-0.4,0.4v4.7l-4.5-1.5c-0.1,0-0.2,0-0.2,0c-0.2,0-0.3,0.1-0.3,0.3
							l-0.5,1.9l0,0.2C-756.7,1093-756.6,1093.2-756.5,1093.2z"/>
					</g>
				</g>
				<g>
					<g>
						<path d="M-734.9,1082.2l4.5,1.5l-2.8,3.8c-0.1,0.1-0.1,0.2-0.1,0.3c0,0.1,0,0.2,0.1,0.3l1.5,1.1c0.1,0.1,0.2,0.1,0.3,0.1
							c0.1,0,0.2-0.1,0.3-0.2l2.8-3.8l2.8,3.8c0.1,0.1,0.2,0.2,0.3,0.2c0.1,0,0.2,0,0.3-0.1l1.5-1.1c0.1-0.1,0.1-0.2,0.1-0.3
							c0,0,0-0.1-0.1-0.3l-2.8-3.8l4.5-1.5c0.2-0.1,0.3-0.2,0.3-0.3c0,0,0-0.1,0-0.2l-0.5-1.9c-0.1-0.2-0.2-0.3-0.3-0.3l-0.2,0
							l-4.5,1.5v-4.7c0-0.3-0.1-0.4-0.4-0.4h-1.9c-0.2,0-0.4,0.1-0.4,0.4v4.7l-4.5-1.5c-0.1,0-0.2,0-0.2,0c-0.2,0-0.3,0.1-0.3,0.3
							l-0.5,1.9l0,0.2C-735.1,1082.1-735,1082.2-734.9,1082.2z"/>
					</g>
				</g>
				<g>
					<g>
						<path d="M-716.6,1066.6l4.5,1.5l-2.8,3.8c-0.1,0.1-0.1,0.2-0.1,0.3c0,0.1,0,0.2,0.1,0.3l1.5,1.1c0.1,0.1,0.2,0.1,0.3,0.1
							c0.1,0,0.2-0.1,0.3-0.2l2.8-3.8l2.8,3.8c0.1,0.1,0.2,0.2,0.3,0.2c0.1,0,0.2,0,0.3-0.1l1.5-1.1c0.1-0.1,0.1-0.2,0.1-0.3
							c0,0,0-0.1-0.1-0.3l-2.8-3.8l4.5-1.5c0.2-0.1,0.3-0.2,0.3-0.3c0,0,0-0.1,0-0.2l-0.5-1.9c-0.1-0.2-0.2-0.3-0.3-0.3l-0.2,0
							l-4.5,1.5v-4.7c0-0.3-0.1-0.4-0.4-0.4h-1.9c-0.2,0-0.4,0.1-0.4,0.4v4.7l-4.5-1.5c-0.1,0-0.2,0-0.2,0c-0.2,0-0.3,0.1-0.3,0.3
							l-0.5,1.9l0,0.2C-716.8,1066.5-716.7,1066.6-716.6,1066.6z"/>
					</g>
				</g>
				<g>
					<g>
						<path d="M-702.5,1047.2l4.5,1.5l-2.8,3.8c-0.1,0.1-0.1,0.2-0.1,0.3c0,0.1,0,0.2,0.1,0.3l1.5,1.1c0.1,0.1,0.2,0.1,0.3,0.1
							c0.1,0,0.2-0.1,0.3-0.2l2.8-3.8l2.8,3.8c0.1,0.1,0.2,0.2,0.3,0.2c0.1,0,0.2,0,0.3-0.1l1.5-1.1c0.1-0.1,0.1-0.2,0.1-0.3
							c0,0,0-0.1-0.1-0.3l-2.8-3.8l4.5-1.5c0.2-0.1,0.3-0.2,0.3-0.3c0,0,0-0.1,0-0.2l-0.5-1.9c-0.1-0.2-0.2-0.3-0.3-0.3l-0.2,0
							l-4.5,1.5v-4.7c0-0.3-0.1-0.4-0.4-0.4h-1.9c-0.2,0-0.4,0.1-0.4,0.4v4.7l-4.5-1.5c-0.1,0-0.2,0-0.2,0c-0.2,0-0.3,0.1-0.3,0.3
							l-0.5,1.9l0,0.2C-702.8,1047-702.7,1047.1-702.5,1047.2z"/>
					</g>
				</g>
				<g>
					<g>
						<path d="M-693.4,1025l4.5,1.5l-2.8,3.8c-0.1,0.1-0.1,0.2-0.1,0.3c0,0.1,0,0.2,0.1,0.3l1.5,1.1c0.1,0.1,0.2,0.1,0.3,0.1
							c0.1,0,0.2-0.1,0.3-0.2l2.8-3.8l2.8,3.8c0.1,0.1,0.2,0.2,0.3,0.2c0.1,0,0.2,0,0.3-0.1l1.5-1.1c0.1-0.1,0.1-0.2,0.1-0.3
							c0,0,0-0.1-0.1-0.3l-2.8-3.8l4.5-1.5c0.2-0.1,0.3-0.2,0.3-0.3c0,0,0-0.1,0-0.2l-0.5-1.9c-0.1-0.2-0.2-0.3-0.3-0.3l-0.2,0
							l-4.5,1.5v-4.7c0-0.2-0.1-0.4-0.4-0.4h-1.9c-0.2,0-0.4,0.1-0.4,0.4v4.7l-4.5-1.5c-0.1,0-0.2,0-0.2,0c-0.2,0-0.3,0.1-0.3,0.3
							l-0.5,1.9l0,0.2C-693.7,1024.8-693.6,1024.9-693.4,1025z"/>
					</g>
				</g>
				<g>
					<g>
						<path d="M-689.6,1001l4.5,1.5l-2.8,3.8c-0.1,0.1-0.1,0.2-0.1,0.3c0,0.1,0,0.2,0.1,0.3l1.5,1.1c0.1,0.1,0.2,0.1,0.3,0.1
							c0.1,0,0.2-0.1,0.3-0.2l2.8-3.8l2.8,3.8c0.1,0.1,0.2,0.2,0.3,0.2c0.1,0,0.2,0,0.3-0.1l1.5-1.1c0.1-0.1,0.1-0.2,0.1-0.3
							c0,0,0-0.1-0.1-0.3l-2.8-3.8l4.5-1.5c0.2-0.1,0.3-0.2,0.3-0.3c0,0,0-0.1,0-0.2l-0.5-1.9c-0.1-0.2-0.2-0.3-0.3-0.3l-0.2,0
							l-4.5,1.5v-4.7c0-0.2-0.1-0.4-0.4-0.4h-1.9c-0.2,0-0.4,0.1-0.4,0.4v4.7l-4.5-1.5c-0.1,0-0.2,0-0.2,0c-0.2,0-0.3,0.1-0.3,0.3
							l-0.5,1.9l0,0.2C-689.8,1000.9-689.7,1001-689.6,1001z"/>
					</g>
				</g>
			</g>
		</g>
		<g>
			<path d="M-806.9,969.8h6.2v1.7h-6.2v7.1h-1.7v-15h10v1.7h-8.3V969.8z"/>
			<path d="M-781.9,978.6h-1.9l-1.6-4.5h-5.4l-1.6,4.5h-1.9l5.5-15h1.4L-781.9,978.6z M-788.1,966.3l-2.1,6.1h4.2L-788.1,966.3z"/>
			<path d="M-776.2,978.6v-1.7h3.5v-11.5h-3.3v-1.7h8.4v1.7h-3.3v11.5h3.5v1.7L-776.2,978.6L-776.2,978.6z"/>
			<path d="M-752.2,964.2l1.6,1.6l0.6,2.1l-0.6,2.1l-1,1.5l-1.2,0.7l2.9,6.5h-1.9l-2.7-6.2h-4v6.2h-1.7v-15h6.2L-752.2,964.2z
				 M-754.1,970.7l1.3-0.6l0.6-0.9l0.4-1.2l-0.4-1.3l-0.9-0.9l-1.2-0.4h-4.3v5.3L-754.1,970.7L-754.1,970.7z"/>
			<path d="M-803.5,994l2.4,0.9l1.5,1.5l0.9,1.9l0.5,1.9v2.8l-0.5,1.9l-0.9,1.9l-1.5,1.5l-2.4,0.9h-5.5v-15L-803.5,994L-803.5,994z
				 M-802.2,1006.6l1-1l0.7-1.4l0.4-1.5v-2.3l-0.4-1.5l-0.7-1.4l-1-1l-1.7-0.7h-3.4v11.5h3.4L-802.2,1006.6z"/>
			<path d="M-781.9,1009h-1.9l-1.6-4.5h-5.4l-1.6,4.5h-1.9l5.5-15h1.4L-781.9,1009z M-788.1,996.7l-2.1,6.1h4.2L-788.1,996.7z"/>
			<path d="M-772.8,1009v-13.2h-4.8V994h11.5v1.7h-4.9v13.2H-772.8z"/>
			<path d="M-749.5,1009h-1.9l-1.6-4.5h-5.4l-1.6,4.5h-1.9l5.4-15h1.4L-749.5,1009z M-755.7,996.7l-2.1,6.1h4.2L-755.7,996.7z"/>
			<path d="M-833.8,1037.4l1.3-1.2l0.4,0.5l0.9,0.6l1.9,0.6h1.8l1.6-0.6l0.5-0.6l0.3-0.6v-1.3l-0.5-1l-1-0.6l-4.3-1.2l-1.6-1.1
				l-0.7-1.1l-0.3-1.7l0.6-1.8l1.3-1.4l1.9-0.6h2.2l2.4,0.6l1.4,0.8l-0.9,1.5l-1.2-0.7l-1.9-0.5h-1.7l-1.3,0.4l-0.8,0.8l-0.3,1.1
				l0.2,0.9l0.3,0.5l1.1,0.8l4.4,1.2l1.6,1.1l0.7,1.6v2l-0.5,1.1l-1,1.2l-2.3,0.8h-2.5l-2.3-0.7l-1.3-0.9L-833.8,1037.4z"/>
			<path d="M-815.5,1038.7l-1.4-1.5l-1-1.9l-0.4-1.9v-3.3l0.4-1.9l1-1.9l1.5-1.4l2.1-0.8h1.8l2.1,0.8l1.5,1.4l1,1.9l0.4,1.9v3.3
				l-0.4,1.9l-1,1.9l-1.4,1.5l-2.1,0.8h-1.9L-815.5,1038.7z M-810.3,1037.2l0.9-0.9l0.7-1.5l0.3-1.6v-3l-0.3-1.4l-0.8-1.5l-1-0.9
				l-1.5-0.5h-1.2l-1.5,0.5l-1,0.9l-0.8,1.5l-0.3,1.4v3l0.3,1.6l0.7,1.5l0.9,0.9l1.5,0.6h1.2L-810.3,1037.2z"/>
			<path d="M-798.8,1038.5l-1.4-1.4l-0.9-1.9l-0.4-1.8v-3.1l0.4-1.9l0.9-1.9l1.5-1.4l2.2-1h2.2l2.2,0.9l0.9,0.7l0.8,1l-1.2,1.2
				l-0.7-0.8l-0.7-0.5l-1.6-0.7h-1.7l-1.5,0.7l-1,1l-0.7,1.4l-0.3,1.4v2.8l0.3,1.4l0.7,1.4l1,1l1.5,0.7h1.7l1.6-0.7l0.7-0.5l0.7-0.8
				l1.2,1.2l-0.8,1l-0.9,0.7l-2.2,0.9h-2.2L-798.8,1038.5z"/>
			<path d="M-784.3,1039.4v-1.7h3.5v-11.5h-3.3v-1.7h8.4v1.7h-3.3v11.5h3.5v1.7H-784.3z"/>
			<path d="M-766.4,1030.5h5.5v1.7h-5.5v5.4h7.8v1.7h-9.6v-15h9.6v1.7h-7.8V1030.5L-766.4,1030.5z"/>
			<path d="M-748.5,1039.4v-13.2h-4.8v-1.7h11.5v1.7h-4.9v13.2H-748.5L-748.5,1039.4z"/>
			<path d="M-725.2,1024.4l-5.3,8.3v6.7h-1.7v-6.7l-5.3-8.3h2.1l4.1,6.5l4.1-6.5H-725.2z"/>
		</g>
	</g>
</g>
</svg>
